<svg xmlns="http://www.w3.org/2000/svg" viewBox="0 0 48 48" width="48" height="48">
  <defs>
    <linearGradient id="g" x1="0" y1="0" x2="1" y2="1">
      <stop offset="0" stop-color="#0284c7"/>
      <stop offset="1" stop-color="#14b8a6"/>
    </linearGradient>
  </defs>
  <rect x="0" y="0" width="48" height="48" rx="11" fill="url(#g)"/>
  <g transform="translate(0,0)">
    <path d="M24 41c-1 0-1.9-.5-2.5-1.2C17 34.4 9 30 9 21.5 9 16.8 12.6 13 17.2 13c2.9 0 5.4 1.5 6.8 3.8C25.4 14.5 27.9 13 30.8 13 35.4 13 39 16.8 39 21.5c0 .9-.1 1.7-.3 2.5"
      stroke="#ffffff" stroke-width="3" stroke-linecap="round" stroke-linejoin="round" fill="rgba(255,255,255,0.14)"/>
    <path d="M14 12v6a6 6 0 0 0 12 0v-4" stroke="#ffffff" stroke-width="2.6" stroke-linecap="round" stroke-linejoin="round" fill="none"/>
    <circle cx="14" cy="10.5" r="2" fill="#ffffff"/>
    <circle cx="26" cy="10.5" r="2" fill="#ffffff"/>
    <circle cx="35.5" cy="27.5" r="4.2" fill="#ffffff"/>
    <circle cx="35.5" cy="27.5" r="1.7" fill="#0284c7"/>
    <path d="M24 22.5v5M21.5 25h5" stroke="#ffffff" stroke-width="2.2" stroke-linecap="round"/>
  </g>
</svg>
