<svg xmlns="http://www.w3.org/2000/svg" viewBox="0 0 1200 630" width="1200" height="630">
  <defs>
    <linearGradient id="bg" x1="0" y1="0" x2="1" y2="1">
      <stop offset="0" stop-color="#0284c7"/>
      <stop offset="1" stop-color="#14b8a6"/>
    </linearGradient>
    <linearGradient id="tile" x1="0" y1="0" x2="1" y2="1">
      <stop offset="0" stop-color="#ffffff"/>
      <stop offset="1" stop-color="#e0f2fe"/>
    </linearGradient>
  </defs>
  <rect width="1200" height="630" fill="url(#bg)"/>
  <circle cx="120" cy="120" r="220" fill="#ffffff" opacity="0.06"/>
  <circle cx="1080" cy="540" r="260" fill="#ffffff" opacity="0.06"/>

  <!-- Icon tile -->
  <g transform="translate(500,150)">
    <rect x="0" y="0" width="200" height="200" rx="46" fill="url(#tile)"/>
    <g transform="translate(28,28) scale(2.9)">
      <path d="M24 41c-1 0-1.9-.5-2.5-1.2C17 34.4 9 30 9 21.5 9 16.8 12.6 13 17.2 13c2.9 0 5.4 1.5 6.8 3.8C25.4 14.5 27.9 13 30.8 13 35.4 13 39 16.8 39 21.5c0 .9-.1 1.7-.3 2.5"
        stroke="#0284c7" stroke-width="3" stroke-linecap="round" stroke-linejoin="round" fill="rgba(2,132,199,0.08)"/>
      <path d="M14 12v6a6 6 0 0 0 12 0v-4" stroke="#0284c7" stroke-width="2.6" stroke-linecap="round" stroke-linejoin="round" fill="none"/>
      <circle cx="14" cy="10.5" r="2" fill="#0284c7"/>
      <circle cx="26" cy="10.5" r="2" fill="#0284c7"/>
      <circle cx="35.5" cy="27.5" r="4.2" fill="#14b8a6"/>
      <circle cx="35.5" cy="27.5" r="1.7" fill="#ffffff"/>
      <path d="M24 22.5v5M21.5 25h5" stroke="#0284c7" stroke-width="2.2" stroke-linecap="round"/>
    </g>
  </g>

  <text x="600" y="420" text-anchor="middle" font-family="Arial, Helvetica, sans-serif" font-size="82" font-weight="800" fill="#ffffff">NurseHub</text>
  <text x="600" y="470" text-anchor="middle" font-family="Arial, Helvetica, sans-serif" font-size="30" font-weight="700" letter-spacing="14" fill="#e0f2fe">E G Y P T</text>
  <text x="600" y="540" text-anchor="middle" font-family="Arial, Helvetica, sans-serif" font-size="30" font-weight="500" fill="#f0fdfa">منصتك الأولى لتعليم التمريض · Nursing Education Platform</text>
</svg>
